<svg
  width="100"
  height="100"
  viewBox="0 0 100 100"
  fill="none"
  xmlns="http://www.w3.org/2000/svg"
>
<g clip-path="url(#clip0_76_483)">
<circle cx="50" cy="50" r="50" fill="white" />
<path
      d="M43.4472 60.4925C44.5519 56.0231 48.5624 52.8833 53.1663 52.8833H54.0502C58.5998 52.8833 62.4359 56.2744 62.994 60.7897C63.3545 63.7069 65.1805 66.1676 67.6058 67.8282C69.9036 69.4016 71.5472 71.0785 73.2602 73.6354C73.7979 74.4382 74.4826 76.9366 74.6492 77.8883C75.6161 83.4142 62.9633 87.4872 57.3681 87.8945C53.9653 88.1423 49.833 88.7851 44.7419 89.8599C38.1333 91.2551 31.7442 86.3778 31.7442 79.6236V78.5758C31.7442 74.9497 33.5119 71.5514 36.481 69.4698L38.794 67.8482C41.0051 66.298 42.5802 63.9998 43.2281 61.3784L43.4472 60.4925Z"
      fill="black"
    />
<path
      d="M45.9053 37.0253C48.5189 43.8986 47.2565 51.1356 43.0859 53.1896C38.9151 55.2437 33.3383 54.4824 30.7248 47.6092C30.3692 46.674 33.5029 50.1799 35.4999 50.5816C30.6526 47.2078 30.3961 43.7399 29.5285 39.0879C29.049 34.155 30.5429 29.8153 33.6213 28.2992C37.7921 26.2451 43.2918 30.152 45.9053 37.0253Z"
      fill="black"
    />
<path
      d="M70.5525 52.7007C72.2914 46.2509 76.9331 42.1508 80.9199 43.5429C84.9067 44.9351 87.3317 50.7042 85.5927 57.154C85.3561 58.0315 86.1529 52.5579 84.9631 50.9445C85.8003 56.0285 84.8984 58.5088 83.0903 62.2698C80.8646 65.9629 77.5653 67.9275 74.6226 66.8999C70.6358 65.5078 68.8135 59.1505 70.5525 52.7007Z"
      fill="black"
    />
<path
      d="M66.8958 31.8869C67.5741 30.2123 66.9163 28.394 65.0075 25.408C68.3962 26.8056 69.7115 33.6916 69.2286 39.5069C68.5931 47.1596 64.7195 53.7884 59.9972 53.2805C59.3547 53.2114 63.3025 52.4342 64.3408 49.67C61.9718 52.0393 60.3656 52.5426 58.7111 52.1C56.8904 51.6131 55.3375 50.302 54.3442 48.6831C52.6595 45.9377 51.7706 41.9662 52.1276 37.6676C52.6766 31.0561 55.9933 25.8333 59.9307 24.862C60.5508 24.7091 65.868 24.7862 66.8958 31.8869Z"
      fill="black"
    />
<path
      d="M31.6762 64.6948C32.9095 64.7926 33.279 63.1876 33.3094 59.5348C35.0306 64.3071 32.8137 68.9425 29.833 70.901C25.9105 73.4783 20.2015 71.6319 17.148 65.6128C16.7325 64.7939 19.8319 69.2985 21.8111 69.3603C17.7525 66.5779 16.7528 64.0561 15.5662 59.8406C14.9872 56.6672 15.3711 53.6134 16.6438 51.413C19.2141 47.9077 23.0372 47.6661 24.6162 48.4451C23.6291 47.2772 21.6281 46.6201 17.9711 48.5688C26.0844 42.7837 27.6639 49.79 30.0266 53.0639C30.5274 53.7579 34.1907 60.318 31.6762 64.6948Z"
      fill="black"
    />
<path
      d="M35.9699 11.1182C33.6209 14.5591 33.456 19.2419 35.0698 22.3113C35.7115 23.5317 35.3587 26.2 34.0408 26.6051C32.7625 26.9979 31.4823 25.3599 31.6625 24.0348C32.1913 20.1485 29.7285 17.0384 35.9699 11.1182Z"
      fill="black"
    />
<path
      d="M56.5156 9C58.9902 11.5967 58.7553 16.0723 57.6473 19.6501C57.1565 21.2349 59.0599 24.2711 60.7062 24.0665C62.0039 23.9052 62.6184 22.307 62.1272 21.0951C60.4511 16.9592 62.8539 13.3576 56.5156 9Z"
      fill="black"
    />
<path
      d="M76.8503 26.1538C80.3385 29.6378 80.9852 35.005 79.5717 38.3313C79.0627 39.529 79.4212 42.0022 80.6524 42.4235C81.8744 42.8417 83.1651 41.329 83.0118 40.0465C82.5387 36.089 84.7988 32.8961 76.8503 26.1538Z"
      fill="black"
    />
<path
      d="M24.2265 30.3306C20.2193 33.6054 19.2803 38.544 20.6168 41.8877C21.1541 43.2323 20.6587 46.2981 19.2644 46.6885C17.933 47.0613 16.5955 45.2671 16.737 43.8917C17.1288 40.0837 14.7845 36.8836 24.2265 30.3306Z"
      fill="black"
    />
</g>
<defs>
<clipPath id="clip0_76_483">
<rect width="100" height="100" fill="white" />
</clipPath>
</defs>
</svg>
