<svg viewBox="0 0 100 100" fill="none" xmlns="http://www.w3.org/2000/svg">
    <g clip-path="url(#clip0_42_482)">
        <path
      d="M42.0105 62.6504C43.3331 57.2997 48.1343 53.5408 53.646 53.5408H54.7042C60.1509 53.5408 64.7434 57.6006 65.4115 63.0061V63.0061C65.8431 66.4985 68.0291 69.4444 70.9326 71.4325C73.6835 73.3161 75.6512 75.3236 77.7019 78.3847C78.3457 79.3458 79.1654 82.3368 79.3648 83.4762V83.4762C80.5224 90.0917 65.3747 94.9678 58.6763 95.4554C54.6026 95.752 49.6555 96.5216 43.5605 97.8083C35.6489 99.4786 28 93.6396 28 85.5536V84.2992C28 79.9582 30.1163 75.8898 33.6708 73.3978L36.4398 71.4564C39.0869 69.6006 40.9726 66.8492 41.7483 63.7109L42.0105 62.6504Z"
    />
        <path
      d="M44.9533 34.5556C48.0822 42.7842 46.5709 51.4482 41.5779 53.9072C36.5848 56.3663 29.9084 55.4549 26.7795 47.2264C26.3538 46.1068 30.1054 50.304 32.4962 50.7849C26.6931 46.7459 26.386 42.5942 25.3474 37.025C24.7733 31.1194 26.5618 25.924 30.2472 24.109C35.2403 21.6499 41.8244 26.3271 44.9533 34.5556Z"
    />
        <path
      d="M74.4603 53.3224C76.5421 45.6008 82.099 40.6923 86.8719 42.3589C91.6448 44.0256 94.548 50.9322 92.4661 58.6538C92.1829 59.7043 93.1368 53.1514 91.7124 51.2199C92.7146 57.3064 91.6349 60.2757 89.4703 64.7783C86.8058 69.1996 82.8559 71.5515 79.333 70.3213C74.5601 68.6547 72.3785 61.044 74.4603 53.3224Z"
    />
        <path
      d="M70.0827 28.4042C70.8947 26.3994 70.1072 24.2226 67.8221 20.6479C71.8789 22.321 73.4535 30.5648 72.8754 37.5267C72.1146 46.6884 67.4772 54.6242 61.8238 54.0162C61.0546 53.9334 65.7809 53.003 67.0239 49.6938C64.1878 52.5302 62.2649 53.1327 60.2841 52.6029C58.1045 52.02 56.2454 50.4504 55.0562 48.5123C53.0393 45.2255 51.9752 40.471 52.4025 35.3248C53.0598 27.4096 57.0304 21.157 61.7442 19.9942C62.4866 19.8111 68.8522 19.9034 70.0827 28.4042Z"
    />
        <path
      d="M27.9185 67.6812C29.395 67.7983 29.8374 65.8768 29.8738 61.5038C31.9344 67.2171 29.2803 72.7664 25.7119 75.1111C21.016 78.1966 14.1813 75.9861 10.5257 68.7802C10.0283 67.7998 13.7388 73.1927 16.1083 73.2666C11.2494 69.9356 10.0526 66.9166 8.63207 61.8699C7.93889 58.0707 8.39852 54.4148 9.92208 51.7805C12.9992 47.5841 17.5762 47.2949 19.4665 48.2275C18.2848 46.8293 15.8892 46.0426 11.5112 48.3755C21.2242 41.4498 23.1151 49.8375 25.9437 53.757C26.5433 54.5878 30.9288 62.4414 27.9185 67.6812Z"
    />
        <path
      d="M33.0588 3.54077C30.2466 7.66019 30.0492 13.2663 31.9812 16.9409C32.7494 18.4019 32.3271 21.5964 30.7493 22.0813V22.0813C29.219 22.5516 27.6863 20.5906 27.9021 19.0042C28.5352 14.3517 25.5867 10.6283 33.0588 3.54077Z"
    />
        <path
      d="M57.6557 1.00446C60.6182 4.11319 60.337 9.47123 59.0105 13.7545C58.4229 15.6518 60.7016 19.2866 62.6726 19.0417V19.0417C64.2261 18.8486 64.9618 16.9353 64.3738 15.4844C62.3672 10.533 65.2437 6.22123 57.6557 1.00446Z"
    />
        <path
      d="M82 21.5408C86.1759 25.7118 86.9501 32.1372 85.2579 36.1194C84.6486 37.5532 85.0778 40.5141 86.5517 41.0185V41.0185C88.0147 41.5191 89.5599 39.7082 89.3763 38.1728C88.81 33.435 91.5157 29.6125 82 21.5408Z"
    />
        <path
      d="M19 26.5408C14.2026 30.4614 13.0785 36.3737 14.6785 40.3767C15.3218 41.9864 14.7287 45.6567 13.0594 46.1241V46.1241C11.4655 46.5704 9.86433 44.4224 10.0337 42.7759C10.5028 38.217 7.69618 34.3859 19 26.5408Z"
    />
    </g>
</svg>
